<svg width="50" height="50" viewBox="0 0 50 50" fill="none" xmlns="http://www.w3.org/2000/svg">
<circle cx="25" cy="25" r="25" fill="#02140C"/>
<rect x="17" y="16" width="7" height="20" fill="white"/>
<circle cx="29" cy="17" r="4" fill="#929EAD"/>
<path d="M25.5 36C26.4849 36 27.4602 35.8448 28.3701 35.5433C29.2801 35.2417 30.1069 34.7998 30.8033 34.2426C31.4997 33.6855 32.0522 33.0241 32.4291 32.2961C32.806 31.5681 33 30.7879 33 30C33 29.2121 32.806 28.4319 32.4291 27.7039C32.0522 26.9759 31.4997 26.3145 30.8033 25.7574C30.1069 25.2002 29.2801 24.7583 28.3701 24.4567C27.4602 24.1552 26.4849 24 25.5 24L25.5 30L25.5 36Z" fill="white"/>
</svg>
